<?xml version="1.0" standalone="no"?>
<!DOCTYPE svg PUBLIC "-//W3C//DTD SVG 20010904//EN"
 "http://www.w3.org/TR/2001/REC-SVG-20010904/DTD/svg10.dtd">
<svg version="1.0" xmlns="http://www.w3.org/2000/svg"
 width="840.000000pt" height="859.000000pt" viewBox="0 0 840.000000 859.000000"
 preserveAspectRatio="xMidYMid meet">
<metadata>
Created by potrace 1.16, written by Peter Selinger 2001-2019
</metadata>
<g transform="translate(0.000000,859.000000) scale(0.100000,-0.100000)"
fill="#000000" stroke="none">
<path d="M6834 8524 c-25 -60 -93 -424 -193 -1029 -262 -1585 -388 -2242 -459
-2393 -59 -125 -125 46 -292 758 -132 566 -193 787 -230 832 -38 47 -71 -6
-120 -194 -64 -246 -95 -414 -269 -1478 -117 -709 -203 -1078 -264 -1129 -12
-10 -19 -7 -35 16 -33 47 -60 133 -159 507 -124 470 -159 565 -200 549 -66
-26 -187 -558 -318 -1408 -60 -388 -135 -895 -135 -914 0 -17 17 -19 243 -24
418 -10 824 -70 1196 -178 256 -74 570 -211 744 -324 l87 -57 0 -689 c0 -676
0 -689 20 -709 11 -11 23 -20 28 -20 35 0 164 118 242 221 72 97 123 199 153
311 l22 83 0 2370 c-1 3896 -7 4901 -32 4926 -10 10 -16 4 -29 -27z"/>
<path d="M1553 7228 c-15 -24 -21 -795 -28 -3393 -7 -2408 -6 -2584 10 -2644
69 -263 317 -529 676 -724 268 -146 710 -287 1110 -356 313 -54 512 -71 850
-72 429 -2 808 37 1179 122 105 24 126 34 140 70 10 24 0 71 -90 386 -251 882
-408 1334 -489 1408 -57 50 -110 -49 -281 -525 -143 -398 -227 -590 -259 -590
-56 0 -158 326 -280 900 -70 329 -220 1091 -350 1775 -192 1006 -314 1566
-395 1803 -89 263 -139 149 -339 -788 -47 -217 -104 -485 -126 -595 -72 -349
-101 -484 -152 -717 -84 -383 -165 -653 -208 -692 -16 -15 -19 -15 -34 2 -78
86 -223 743 -432 1962 -36 212 -75 432 -85 490 -11 58 -44 258 -75 445 -124
759 -156 950 -195 1169 -77 433 -109 576 -130 576 -5 0 -12 -6 -17 -12z"/>
</g>
</svg>
